<?xml version="1.0" encoding="utf-8"?>
<!-- Generator: Adobe Illustrator 21.0.0, SVG Export Plug-In . SVG Version: 6.00 Build 0)  -->
<svg version="1.1" id="Layer_1" xmlns="http://www.w3.org/2000/svg" xmlns:xlink="http://www.w3.org/1999/xlink" x="0px" y="0px"
	 viewBox="0 0 193.5 111.1" style="enable-background:new 0 0 193.5 111.1;" xml:space="preserve">
<style type="text/css">
	.st0{fill:#FFFFFF;stroke:#1BA49C;stroke-width:3;stroke-miterlimit:10;}
	.st1{fill:#FFFFFF;stroke:#1BA49C;stroke-miterlimit:10;}
	.st2{fill:none;stroke:#1BA49C;stroke-width:0.5;stroke-miterlimit:10;}
</style>
<g>
	<polygon class="st0" points="68.7,66 42.3,109.4 95.2,109.4 	"/>
	<polygon class="st0" points="108.6,38.6 65.5,109.4 151.7,109.4 	"/>
	<polyline class="st0" points="68.7,66 63.7,83.9 68.7,91.3 52.5,109.4 	"/>
	<polyline class="st0" points="108.6,38.6 102.7,69.8 115.8,82.1 97.3,90.9 114.2,109.4 	"/>
	<path class="st0" d="M108.6,49"/>
	<polyline class="st0" points="107.9,49 112.7,49 114.9,49 	"/>
	<polyline class="st0" points="105.2,56.7 115,56.7 119.6,56.7 	"/>
	<polyline class="st0" points="103.6,64.4 117.2,64.4 123.7,64.4 	"/>
	<polyline class="st0" points="105.2,72.1 121.3,72.1 129,72.1 	"/>
	<polyline class="st0" points="113.4,79.8 127.6,79.8 134.4,79.8 	"/>
	<polyline class="st0" points="104.1,87.5 127,87.5 137.9,87.5 	"/>
	<polyline class="st0" points="101.8,95.2 129.5,95.2 142.7,95.2 	"/>
	<polyline class="st0" points="107.9,102.9 134.6,102.9 147.3,102.9 	"/>
	<polyline class="st0" points="66.5,75.6 70.1,75.6 73.8,75.6 	"/>
	<polyline class="st0" points="65.5,79.8 71,79.8 76.5,79.8 	"/>
	<polyline class="st0" points="64.5,83.9 71.9,83.9 79.3,83.9 	"/>
	<polyline class="st0" points="66.5,88.1 72.5,88.1 78.4,88.1 	"/>
	<polyline class="st0" points="66.5,92.2 71.2,92.2 75.9,92.2 	"/>
	<polyline class="st0" points="64.5,96.1 69.1,96.1 73.8,96.1 	"/>
	<polyline class="st0" points="61,100.6 65.9,100.6 70.8,100.6 	"/>
	<polyline class="st0" points="56.6,104.7 62.7,104.7 68.7,104.7 	"/>
</g>
<line class="st0" x1="193.5" y1="109.6" x2="0.6" y2="110.1"/>
<path class="st0" d="M12.5,108.7c0,0.2,0-8.2,0-14.6c0-3.9-3.2-7.1-7.1-7.1h0c-2.2,0-4-1.8-4-4V67.8c0-1,0.8-1.7,1.7-1.7h2.1
	c1,0,1.7,0.8,1.7,1.7v9.4c0,1.9,1.5,3.4,3.4,3.5h0c1.2,0,2.2-0.9,2.2-2.1V52.9c0-1.2,0.9-2.1,2.1-2.1h4.2c1.1,0,2,0.9,2,2v55.8"/>
<path class="st1" d="M30.5,108.7v-8c0-0.4-0.3-0.7-0.7-0.7H28c-0.4,0-0.7-0.3-0.7-0.7V94c0-0.4,0.3-0.7,0.7-0.7h0.3
	c0.4,0,0.7,0.3,0.7,0.7v2.4c0,0.4,0.3,0.6,0.6,0.7l1,0.1c0.3,0,0.7-0.2,0.7-0.6l0.7-4.2c0-0.1,0-0.1,0-0.2l-0.5-3.7
	c-0.1-0.4,0.3-0.8,0.7-0.8h1.8c0.3,0,0.6,0.3,0.7,0.6l0.5,3.9c0,0.1,0,0.2,0,0.2l-0.6,2.9c-0.1,0.4,0.2,0.8,0.7,0.8h1.6
	c0.3,0,0.6-0.2,0.7-0.5l0.9-4c0-0.1,0-0.2,0-0.2l-0.2-1.8c-0.1-0.4,0.3-0.8,0.7-0.8l0.9,0c0.3,0,0.6,0.3,0.6,0.6l0.3,1.9
	c0,0.1,0,0.2,0,0.3L39.2,96c0,0,0,0,0,0.1l-0.9,2.1c-0.1,0.2-0.3,0.4-0.6,0.4l-3.1,0.2c-0.4,0-0.6,0.3-0.6,0.7v9.3"/>
<path class="st0" d="M169.6,108.7v-12c0-1.3-1.1-2.4-2.4-2.4h-2.7c-1.3,0-2.4-1.1-2.4-2.4v-2.7c0-1.3,1.1-2.4,2.4-2.4h2.7
	c1.3,0,2.4-1.1,2.4-2.4V73.7c0-1.3-1-2.3-2.3-2.4l-6.7-0.4c-1.3-0.1-2.3-1.1-2.3-2.4V46.5c0-1.3,1.1-2.4,2.4-2.4h3
	c1.3,0,2.4,1,2.4,2.3l0.4,14.2c0,1.3,1.1,2.3,2.4,2.3l0,0c1.3,0,2.4-1.1,2.4-2.4V30.9c0-1.3,1.1-2.4,2.4-2.4h4.7
	c1.3,0,2.4,1,2.4,2.4l1.1,46v31.8"/>
<line class="st2" x1="36.6" y1="25.8" x2="42.9" y2="25.8"/>
<line class="st2" x1="39.8" y1="28.9" x2="39.8" y2="22.6"/>
<line class="st2" x1="30.8" y1="59.8" x2="37.1" y2="59.8"/>
<line class="st2" x1="34" y1="62.9" x2="34" y2="56.7"/>
<line class="st2" x1="68.1" y1="40.6" x2="74.3" y2="40.6"/>
<line class="st2" x1="71.2" y1="43.8" x2="71.2" y2="37.5"/>
<line class="st2" x1="143.7" y1="17.5" x2="150" y2="17.5"/>
<line class="st2" x1="146.8" y1="20.6" x2="146.8" y2="14.4"/>
<line class="st2" x1="137.9" y1="69.1" x2="144.2" y2="69.1"/>
<line class="st2" x1="141" y1="72.3" x2="141" y2="66"/>
<line class="st2" x1="14.2" y1="23" x2="26.2" y2="23"/>
<line class="st2" x1="20.1" y1="29" x2="20.1" y2="17"/>
<line class="st2" x1="23.4" y1="26.3" x2="16.9" y2="19.9"/>
<line class="st2" x1="16.9" y1="26.3" x2="23.4" y2="19.9"/>
<line class="st2" x1="68.3" y1="6.5" x2="80.3" y2="6.5"/>
<line class="st2" x1="74.2" y1="12.5" x2="74.2" y2="0.5"/>
<line class="st2" x1="77.5" y1="9.9" x2="71" y2="3.4"/>
<line class="st2" x1="71" y1="9.9" x2="77.5" y2="3.4"/>
<line class="st2" x1="123.9" y1="36.8" x2="135.9" y2="36.8"/>
<line class="st2" x1="129.8" y1="42.8" x2="129.8" y2="30.8"/>
<line class="st2" x1="133.1" y1="40.1" x2="126.6" y2="33.6"/>
<line class="st2" x1="126.6" y1="40.1" x2="133.1" y2="33.6"/>
</svg>
